<svg xmlns="http://www.w3.org/2000/svg" xml:space="preserve" width="600" height="600" style="background:#363"><style>line{stroke:#cfc;stroke-width:20px;transform-origin:50%}circle{stroke-miterlimit:4;fill:none}</style><path d="M300 70v455"/><path d="M300 70v455" style="rotate:22.5deg"/><path d="M300 70v455" style="rotate:45deg"/><path d="M300 70v455" style="rotate:67.5deg"/><path d="M300 70v455" style="rotate:90deg"/><path d="M300 70v455" style="rotate:112.5deg"/><path d="M300 70v455" style="rotate:135deg"/><path d="M300 70v455" style="rotate:157.5deg"/><circle cx="300" cy="300" r="223" style="stroke:#fff;stroke-width:35px"/><circle cx="300" cy="300" r="225" style="stroke:#cfc;stroke-width:35px"/><circle cx="300" cy="300" r="229" style="stroke:#bfb;stroke-width:25px"/><circle cx="300" cy="300" r="233" style="stroke:#afa;stroke-width:15px"/><circle cx="300" cy="300" r="237" style="stroke:#9f9;stroke-width:5px"/><circle cx="300" cy="300" r="240" style="stroke:#484;stroke-width:1px"/><circle cx="300" cy="300" r="233" style="stroke:#393;stroke-width:1px"/><circle cx="300" cy="300" r="226" style="stroke:#2a2;stroke-width:1px"/><circle cx="300" cy="300" r="219" style="stroke:#1b1;stroke-width:1px"/><circle cx="300" cy="300" r="212" style="stroke:#aca;stroke-width:1px"/><circle cx="300" cy="300" r="204" style="stroke:#363;stroke-width:4px"/><circle cx="300" cy="300" r="55" style="stroke:#fff;stroke-width:29px"/><circle cx="300" cy="300" r="55" style="stroke:#cfc;stroke-width:28px"/><circle cx="300" cy="300" r="45" style="stroke:#bfb;stroke-width:22px"/><circle cx="300" cy="300" r="45" style="stroke:#afa;stroke-width:18px"/><circle cx="300" cy="300" r="25" style="stroke:#9f9;stroke-width:12px"/><circle cx="300" cy="300" r="69" style="stroke:#363;stroke-width:3px"/><circle cx="300" cy="300" r="55" style="stroke:#363;stroke-width:3px"/><circle cx="300" cy="300" r="50" style="stroke:#2a2;stroke-width:1px"/><circle cx="300" cy="300" r="45" style="stroke:#1b1;stroke-width:1px"/><circle cx="300" cy="300" r="40" style="stroke:#aca;stroke-width:1px"/><circle cx="300" cy="300" r="35" style="stroke:#bdb;stroke-width:1px"/><circle cx="300" cy="300" r="28" style="fill:#363;stroke-width:0"/></svg>